<?xml version="1.0" encoding="UTF-8" standalone="no"?>
<svg
   width="512"
   height="512"
   viewBox="0 0 512 512"
   fill="none"
   version="1.1"
   id="svg1589"
   sodipodi:docname="logo.svg"
   inkscape:version="1.2.1 (9c6d41e, 2022-07-14)"
   xmlns:inkscape="http://www.inkscape.org/namespaces/inkscape"
   xmlns:sodipodi="http://sodipodi.sourceforge.net/DTD/sodipodi-0.dtd"
   xmlns="http://www.w3.org/2000/svg"
   xmlns:svg="http://www.w3.org/2000/svg">
  <sodipodi:namedview
     id="namedview1591"
     pagecolor="#ffffff"
     bordercolor="#000000"
     borderopacity="0.25"
     inkscape:showpageshadow="2"
     inkscape:pageopacity="0.0"
     inkscape:pagecheckerboard="0"
     inkscape:deskcolor="#d1d1d1"
     showgrid="false"
     inkscape:zoom="1.0175781"
     inkscape:cx="256"
     inkscape:cy="256"
     inkscape:current-layer="g2462" />
  <g
     id="g2462">
    <path
       d="M106.807 211.107C151.095 233.995 153.115 235.041 153.207 235.086C153.219 235.095 153.849 235.42 198 258.239C171.928 306.779 155.307 335.505 148.132 344.418C137.373 357.788 125.636 367.911 111.202 373.752C80.8558 388.014 43.1316 388.681 14 371.048L106.807 211.107Z"
       fill="url(#paint0_radial_1_14)"
       id="path1566" />
    <path
       d="M444.31 229.726C398.04 148.77 350.21 72.4977 295.267 184.382C287.751 198.766 282.272 226.719 270 226.719V226.577C257.728 226.577 252.251 198.624 244.735 184.24C189.79 72.3556 141.96 148.628 95.6895 229.584C92.2074 235.69 88.8624 241.516 86 246.58C192.038 179.453 183.11 382.247 270 383.858V384C356.891 382.389 347.962 179.595 454 246.72C451.139 241.658 447.794 235.832 444.31 229.726Z"
       fill="url(#paint1_linear_1_14)"
       id="path1568" />
    <path
       d="M450 384C476.509 384 498 362.509 498 336C498 309.491 476.509 288 450 288C423.491 288 402 309.491 402 336C402 362.509 423.491 384 450 384Z"
       fill="url(#paint2_radial_1_14)"
       id="path1570"
       style="fill:url(#paint2_radial_1_14)" />
  </g>
  <defs
     id="defs1587">
    <radialGradient
       id="paint0_radial_1_14"
       cx="0"
       cy="0"
       r="1"
       gradientUnits="userSpaceOnUse"
       gradientTransform="translate(198 211.107) rotate(-2.4366) scale(191.527 178.078)">
      <stop
         stop-color="#362E54"
         id="stop1572"
         offset="0"
         style="stop-color:#0e003e;stop-opacity:1;" />
      <stop
         offset="1"
         stop-color="#5A5183"
         id="stop1574"
         style="stop-color:#1c0a55;stop-opacity:1;" />
    </radialGradient>
    <linearGradient
       id="paint1_linear_1_14"
       x1="14"
       y1="371.048"
       x2="454"
       y2="128"
       gradientUnits="userSpaceOnUse">
      <stop
         stop-color="#868EBB"
         id="stop1577"
         offset="0"
         style="stop-color:#201059;stop-opacity:1;" />
      <stop
         offset="1"
         stop-color="#5A5183"
         id="stop1579"
         style="stop-color:#2b1d64;stop-opacity:1;" />
    </linearGradient>
    <radialGradient
       id="paint2_radial_1_14"
       cx="-0.47067404"
       cy="-0.60481346"
       r="1"
       gradientUnits="userSpaceOnUse"
       gradientTransform="matrix(48.968651,-87.119773,120.61856,67.79779,498,288)"
       fx="-0.47067404"
       fy="-0.60481346">
      <stop
         stop-color="#362E54"
         id="stop1582"
         offset="0"
         style="stop-color:#0e003e;stop-opacity:1;" />
      <stop
         stop-color="#362E54"
         id="stop822"
         style="stop-color:#201059;stop-opacity:1;"
         offset="0.5" />
      <stop
         offset="1"
         stop-color="#5A5183"
         id="stop1584"
         style="stop-color:#36296f;stop-opacity:1;" />
    </radialGradient>
  </defs>
</svg>
